<svg version="1.1" id="Layer_1" xmlns="http://www.w3.org/2000/svg" xmlns:xlink="http://www.w3.org/1999/xlink" x="0px" y="0px"
	 width="100%" viewBox="0 0 1500 1500" enable-background="new 0 0 1500 1500" xml:space="preserve">
<path fill="#FCFCF0" opacity="1.000000" stroke="none" 
	d="
M1032.000000,1501.000000 
	C688.000061,1501.000000 344.500122,1501.000000 1.000138,1501.000000 
	C1.000092,1001.000122 1.000092,501.000305 1.000046,1.000340 
	C500.999756,1.000226 1000.999512,1.000226 1500.999512,1.000113 
	C1500.999634,500.999664 1500.999634,1000.999329 1500.999756,1500.999512 
	C1344.833374,1501.000000 1188.666626,1501.000000 1032.000000,1501.000000 
M906.819946,1284.721436 
	C975.998657,1309.340210 1045.176758,1333.960815 1114.356567,1358.576294 
	C1128.405151,1363.575073 1142.460693,1368.554688 1157.082031,1373.744995 
	C1157.422119,1370.460083 1157.756348,1367.690308 1157.989380,1364.912109 
	C1160.451416,1335.549805 1162.874878,1306.184082 1165.353760,1276.823242 
	C1168.532715,1239.172363 1171.779297,1201.527222 1174.947388,1163.875488 
	C1177.766602,1130.368652 1180.485229,1096.853394 1183.308838,1063.347046 
	C1186.817749,1021.710571 1190.417358,980.081726 1193.924194,938.445129 
	C1197.081665,900.956726 1200.135132,863.459595 1203.292603,825.971191 
	C1206.463867,788.320435 1209.723145,750.677063 1212.914795,713.027954 
	C1216.176880,674.549866 1219.128540,636.042908 1222.734009,597.597229 
	C1225.538696,567.691162 1226.016235,567.651428 1210.832642,541.810547 
	C1200.471069,524.176086 1189.796509,506.722992 1179.093750,489.292023 
	C1164.390259,465.345337 1149.600952,441.450012 1134.616699,417.678741 
	C1133.155640,415.360931 1130.316895,413.488403 1127.705566,412.379913 
	C1036.708374,373.750885 945.654236,335.255829 854.623413,296.705780 
	C712.641602,236.578827 570.671814,176.423370 428.693604,116.287926 
	C415.271210,110.602821 401.824921,104.974106 388.037781,99.171082 
	C387.657379,101.018440 387.282837,102.448814 387.074982,103.903023 
	C380.954010,146.730804 374.886841,189.566330 368.733551,232.389450 
	C360.236603,291.522705 351.638855,350.641449 343.155334,409.776642 
	C335.971771,459.850281 328.932861,509.944672 321.751251,560.018616 
	C311.924011,628.539368 302.010895,697.047852 292.156097,765.564697 
	C284.480072,818.933350 277.179626,872.359680 268.942108,925.641357 
	C266.839081,939.244202 267.963654,950.822144 275.371002,962.864502 
	C286.849915,981.526184 295.837738,1001.718018 307.280731,1020.404419 
	C320.395477,1041.820557 334.967682,1062.349121 349.117218,1083.119751 
	C350.646606,1085.364990 353.320068,1087.355835 355.889557,1088.287109 
	C385.878815,1099.156128 415.949860,1109.799316 445.999390,1120.501953 
	C599.370972,1175.127808 752.742493,1229.753784 906.819946,1284.721436 
z"/>
<path fill="#00693C" opacity="1.000000" stroke="none" 
	d="
M906.466980,1284.550537 
	C752.742493,1229.753784 599.370972,1175.127808 445.999390,1120.501953 
	C415.949860,1109.799316 385.878815,1099.156128 355.889557,1088.287109 
	C353.320068,1087.355835 350.646606,1085.364990 349.117218,1083.119751 
	C334.967682,1062.349121 320.395477,1041.820557 307.280731,1020.404419 
	C295.837738,1001.718018 286.849915,981.526184 275.371002,962.864502 
	C267.963654,950.822144 266.839081,939.244202 268.942108,925.641357 
	C277.179626,872.359680 284.480072,818.933350 292.156097,765.564697 
	C302.010895,697.047852 311.924011,628.539368 321.751251,560.018616 
	C328.932861,509.944672 335.971771,459.850281 343.155334,409.776642 
	C351.638855,350.641449 360.236603,291.522705 368.733551,232.389450 
	C374.886841,189.566330 380.954010,146.730804 387.074982,103.903023 
	C387.282837,102.448814 387.657379,101.018440 388.037781,99.171082 
	C401.824921,104.974106 415.271210,110.602821 428.693604,116.287926 
	C570.671814,176.423370 712.641602,236.578827 854.623413,296.705780 
	C945.654236,335.255829 1036.708374,373.750885 1127.705566,412.379913 
	C1130.316895,413.488403 1133.155640,415.360931 1134.616699,417.678741 
	C1149.600952,441.450012 1164.390259,465.345337 1179.093750,489.292023 
	C1189.796509,506.722992 1200.471069,524.176086 1210.832642,541.810547 
	C1226.016235,567.651428 1225.538696,567.691162 1222.734009,597.597229 
	C1219.128540,636.042908 1216.176880,674.549866 1212.914795,713.027954 
	C1209.723145,750.677063 1206.463867,788.320435 1203.292603,825.971191 
	C1200.135132,863.459595 1197.081665,900.956726 1193.924194,938.445129 
	C1190.417358,980.081726 1186.817749,1021.710571 1183.308838,1063.347046 
	C1180.485229,1096.853394 1177.766602,1130.368652 1174.947388,1163.875488 
	C1171.779297,1201.527222 1168.532715,1239.172363 1165.353760,1276.823242 
	C1162.874878,1306.184082 1160.451416,1335.549805 1157.989380,1364.912109 
	C1157.756348,1367.690308 1157.422119,1370.460083 1157.082031,1373.744995 
	C1142.460693,1368.554688 1128.405151,1363.575073 1114.356567,1358.576294 
	C1045.176758,1333.960815 975.998657,1309.340210 906.466980,1284.550537 
M355.102539,941.588745 
	C343.320221,962.909424 331.537872,984.230103 319.417633,1006.162231 
	C321.787994,1006.162231 323.265015,1006.162231 324.742035,1006.162231 
	C517.226318,1006.162231 709.710571,1006.152039 902.194763,1006.242371 
	C905.685425,1006.244019 907.412537,1005.162598 908.961914,1002.042358 
	C926.625610,966.470215 944.459167,930.982361 962.235046,895.465820 
	C1028.747925,762.572083 1095.256836,629.676331 1161.756470,496.776001 
	C1162.534058,495.222137 1163.168213,493.596558 1164.099609,491.481873 
	C1162.007446,491.481873 1160.541870,491.481842 1159.076294,491.481842 
	C975.757935,491.481842 792.439575,491.494385 609.121277,491.393433 
	C605.396118,491.391388 603.559265,492.665283 601.844360,495.833740 
	C592.507202,513.084412 582.933899,530.207336 573.431396,547.368530 
	C500.784821,678.566101 428.135834,809.762329 355.102539,941.588745 
z"/>
<path fill="#FBFCF0" opacity="1.000000" stroke="none" 
	d="
M355.295074,941.273926 
	C428.135834,809.762329 500.784821,678.566101 573.431396,547.368530 
	C582.933899,530.207336 592.507202,513.084412 601.844360,495.833740 
	C603.559265,492.665283 605.396118,491.391388 609.121277,491.393433 
	C792.439575,491.494385 975.757935,491.481842 1159.076294,491.481842 
	C1160.541870,491.481842 1162.007446,491.481873 1164.099609,491.481873 
	C1163.168213,493.596558 1162.534058,495.222137 1161.756470,496.776001 
	C1095.256836,629.676331 1028.747925,762.572083 962.235046,895.465820 
	C944.459167,930.982361 926.625610,966.470215 908.961914,1002.042358 
	C907.412537,1005.162598 905.685425,1006.244019 902.194763,1006.242371 
	C709.710571,1006.152039 517.226318,1006.162231 324.742035,1006.162231 
	C323.265015,1006.162231 321.787994,1006.162231 319.417633,1006.162231 
	C331.537872,984.230103 343.320221,962.909424 355.295074,941.273926 
M673.468445,843.017517 
	C700.163330,871.266968 733.030029,883.976013 771.527161,879.665222 
	C837.066162,872.326416 881.944092,811.924133 871.195618,746.745239 
	C860.850891,684.014587 799.651001,640.841614 737.559143,653.334473 
	C694.588684,661.980042 664.422241,687.154724 650.218201,728.798523 
	C635.973145,770.562805 644.501587,808.773254 673.468445,843.017517 
z"/>
<path fill="#00693C" opacity="1.000000" stroke="none" 
	d="
M673.242676,842.744690 
	C644.501587,808.773254 635.973145,770.562805 650.218201,728.798523 
	C664.422241,687.154724 694.588684,661.980042 737.559143,653.334473 
	C799.651001,640.841614 860.850891,684.014587 871.195618,746.745239 
	C881.944092,811.924133 837.066162,872.326416 771.527161,879.665222 
	C733.030029,883.976013 700.163330,871.266968 673.242676,842.744690 
z"/>
</svg>